<svg width="59" height="9" viewBox="0 0 59 9" fill="none" xmlns="http://www.w3.org/2000/svg">
    <path d="M5.92 5.05H4.03V6.99H2.71V5.05H0.82V3.83H2.71V1.89H4.03V3.83H5.92V5.05ZM13.7611 6.67H10.9811L10.5211 8H9.05109L11.5611 1.01H13.1911L15.7011 8H14.2211L13.7611 6.67ZM13.3811 5.55L12.3711 2.63L11.3611 5.55H13.3811ZM16.1143 5.21C16.1143 4.65 16.2243 4.15333 16.4443 3.72C16.671 3.28667 16.9776 2.95333 17.3643 2.72C17.751 2.48667 18.181 2.37 18.6543 2.37C19.0143 2.37 19.3576 2.45 19.6843 2.61C20.011 2.76333 20.271 2.97 20.4643 3.23V0.6H21.8843V8H20.4643V7.18C20.291 7.45333 20.0476 7.67333 19.7343 7.84C19.421 8.00667 19.0576 8.09 18.6443 8.09C18.1776 8.09 17.751 7.97 17.3643 7.73C16.9776 7.49 16.671 7.15333 16.4443 6.72C16.2243 6.28 16.1143 5.77667 16.1143 5.21ZM20.4743 5.23C20.4743 4.89 20.4076 4.6 20.2743 4.36C20.141 4.11333 19.961 3.92667 19.7343 3.8C19.5076 3.66667 19.2643 3.6 19.0043 3.6C18.7443 3.6 18.5043 3.66333 18.2843 3.79C18.0643 3.91667 17.8843 4.10333 17.7443 4.35C17.611 4.59 17.5443 4.87667 17.5443 5.21C17.5443 5.54333 17.611 5.83667 17.7443 6.09C17.8843 6.33667 18.0643 6.52667 18.2843 6.66C18.511 6.79333 18.751 6.86 19.0043 6.86C19.2643 6.86 19.5076 6.79667 19.7343 6.67C19.961 6.53667 20.141 6.35 20.2743 6.11C20.4076 5.86333 20.4743 5.57 20.4743 5.23ZM22.7266 5.21C22.7266 4.65 22.8366 4.15333 23.0566 3.72C23.2833 3.28667 23.59 2.95333 23.9766 2.72C24.3633 2.48667 24.7933 2.37 25.2666 2.37C25.6266 2.37 25.97 2.45 26.2966 2.61C26.6233 2.76333 26.8833 2.97 27.0766 3.23V0.6H28.4966V8H27.0766V7.18C26.9033 7.45333 26.66 7.67333 26.3466 7.84C26.0333 8.00667 25.67 8.09 25.2566 8.09C24.79 8.09 24.3633 7.97 23.9766 7.73C23.59 7.49 23.2833 7.15333 23.0566 6.72C22.8366 6.28 22.7266 5.77667 22.7266 5.21ZM27.0866 5.23C27.0866 4.89 27.02 4.6 26.8866 4.36C26.7533 4.11333 26.5733 3.92667 26.3466 3.8C26.12 3.66667 25.8766 3.6 25.6166 3.6C25.3566 3.6 25.1166 3.66333 24.8966 3.79C24.6766 3.91667 24.4966 4.10333 24.3566 4.35C24.2233 4.59 24.1566 4.87667 24.1566 5.21C24.1566 5.54333 24.2233 5.83667 24.3566 6.09C24.4966 6.33667 24.6766 6.52667 24.8966 6.66C25.1233 6.79333 25.3633 6.86 25.6166 6.86C25.8766 6.86 26.12 6.79667 26.3466 6.67C26.5733 6.53667 26.7533 6.35 26.8866 6.11C27.02 5.86333 27.0866 5.57 27.0866 5.23ZM33.3168 2.15V3.9H35.6668V5.01H33.3168V6.86H35.9668V8H31.9168V1.01H35.9668V2.15H33.3168ZM39.3841 6.71L40.7841 2.46H42.2741L40.2241 8H38.5241L36.4841 2.46H37.9841L39.3841 6.71ZM48.0454 5.11C48.0454 5.31 48.0321 5.49 48.0054 5.65H43.9554C43.9887 6.05 44.1287 6.36333 44.3754 6.59C44.6221 6.81667 44.9254 6.93 45.2854 6.93C45.8054 6.93 46.1754 6.70667 46.3954 6.26H47.9054C47.7454 6.79333 47.4387 7.23333 46.9854 7.58C46.5321 7.92 45.9754 8.09 45.3154 8.09C44.7821 8.09 44.3021 7.97333 43.8754 7.74C43.4554 7.5 43.1254 7.16333 42.8854 6.73C42.6521 6.29667 42.5354 5.79667 42.5354 5.23C42.5354 4.65667 42.6521 4.15333 42.8854 3.72C43.1187 3.28667 43.4454 2.95333 43.8654 2.72C44.2854 2.48667 44.7687 2.37 45.3154 2.37C45.8421 2.37 46.3121 2.48333 46.7254 2.71C47.1454 2.93667 47.4687 3.26 47.6954 3.68C47.9287 4.09333 48.0454 4.57 48.0454 5.11ZM46.5954 4.71C46.5887 4.35 46.4587 4.06333 46.2054 3.85C45.9521 3.63 45.6421 3.52 45.2754 3.52C44.9287 3.52 44.6354 3.62667 44.3954 3.84C44.1621 4.04667 44.0187 4.33667 43.9654 4.71H46.5954ZM51.9723 2.38C52.6323 2.38 53.1656 2.59 53.5723 3.01C53.9789 3.42333 54.1823 4.00333 54.1823 4.75V8H52.7823V4.94C52.7823 4.5 52.6723 4.16333 52.4523 3.93C52.2323 3.69 51.9323 3.57 51.5523 3.57C51.1656 3.57 50.8589 3.69 50.6323 3.93C50.4123 4.16333 50.3023 4.5 50.3023 4.94V8H48.9023V2.46H50.3023V3.15C50.4889 2.91 50.7256 2.72333 51.0123 2.59C51.3056 2.45 51.6256 2.38 51.9723 2.38ZM56.9786 3.61V6.29C56.9786 6.47667 57.0219 6.61333 57.1086 6.7C57.2019 6.78 57.3553 6.82 57.5686 6.82H58.2186V8H57.3386C56.1586 8 55.5686 7.42667 55.5686 6.28V3.61H54.9086V2.46H55.5686V1.09H56.9786V2.46H58.2186V3.61H56.9786Z" fill="white"/>
</svg>

